HIERARCHY
ROOT hip
{
	OFFSET 0.000000 0.000000 0.000000 
	CHANNELS 6 Xposition Yposition Zposition Xrotation Zrotation Yrotation
	JOINT abdomen
	{
		OFFSET 0.000000 3.402643 0.000000 
		CHANNELS 3 Xrotation Zrotation Yrotation
		JOINT chest
		{
			OFFSET 0.000000 8.438565 -0.680529 
			CHANNELS 3 Xrotation Zrotation Yrotation
			JOINT neck
			{
				OFFSET 0.000000 10.207942 -0.272212 
				CHANNELS 3 Xrotation Zrotation Yrotation
				JOINT head
				{
					OFFSET 0.000000 3.130431 0.000000 
					CHANNELS 3 Xrotation Zrotation Yrotation
					End Site
					{
						OFFSET 0.000000 3.130435 0.000000 
					}
				}
			}
			JOINT lCollar
			{
				OFFSET 3.470700 6.669187 -0.816635 
				CHANNELS 3 Yrotation Zrotation Xrotation
				JOINT lShldr
				{
					OFFSET 3.198488 0.000000 0.000000 
					CHANNELS 3 Zrotation Yrotation Xrotation
					JOINT lForeArm
					{
						OFFSET 10.139888 0.000000 0.000000 
						CHANNELS 3 Yrotation Zrotation Xrotation
						JOINT lHand
						{
							OFFSET 8.370511 0.000000 0.000000 
							CHANNELS 3 Zrotation Yrotation Xrotation
							End Site
							{
								OFFSET 4.083176 0.000000 0.000000 
							}
						}
					}
				}
			}
			JOINT rCollar
			{
				OFFSET -3.470700 6.669187 -0.816635 
				CHANNELS 3 Yrotation Zrotation Xrotation
				JOINT rShldr
				{
					OFFSET -3.198488 0.000000 0.000000 
					CHANNELS 3 Zrotation Yrotation Xrotation
					JOINT rForeArm
					{
						OFFSET -10.139888 0.000000 0.000000 
						CHANNELS 3 Yrotation Zrotation Xrotation
						JOINT rHand
						{
							OFFSET -8.370511 0.000000 0.000000 
							CHANNELS 3 Zrotation Yrotation Xrotation
							End Site
							{
								OFFSET -4.083176 0.000000 0.000000 
							}
						}
					}
				}
			}
		}
	}
	JOINT lThigh
	{
		OFFSET 5.308129 -1.633274 1.361059 
		CHANNELS 3 Xrotation Zrotation Yrotation
		JOINT lShin
		{
			OFFSET -2.041588 -20.007561 0.000000 
			CHANNELS 3 Xrotation Zrotation Yrotation
			JOINT lFoot
			{
				OFFSET 0.000000 -19.190928 -1.224953 
				CHANNELS 3 Xrotation Yrotation Zrotation
				End Site
				{
					OFFSET 0.000000 -2.449906 4.627600 
				}
			}
		}
	}
	JOINT rThigh
	{
		OFFSET -5.308129 -1.633274 1.361059 
		CHANNELS 3 Xrotation Zrotation Yrotation
		JOINT rShin
		{
			OFFSET 2.041588 -20.007561 0.000000 
			CHANNELS 3 Xrotation Zrotation Yrotation
			JOINT rFoot
			{
				OFFSET 0.000000 -19.190928 -1.224953 
				CHANNELS 3 Xrotation Yrotation Zrotation
				End Site
				{
					OFFSET 0.000000 -2.449906 4.627600 
				}
			}
		}
	}
}
MOTION
Frames: 20
Frame Time: 0.016667
0.283098 41.432453 -0.209651 6.143470 3.369260 -7.029620 -12.922800 -2.434240 -3.821570 27.278900 1.842720 -2.341240 4.803300 -0.998112 4.419280 7.662330 3.715340 2.542550 2.000000 -2.000000 0.000000 -77.231499 -14.297100 -159.177994 79.746597 -0.239185 0.134581 0.080703 -0.097786 -170.192993 -2.000000 2.000000 0.000000 76.070297 -5.845650 -165.130997 -30.967100 0.332078 0.070351 -0.075617 0.059524 -158.699005 -2.315980 -11.069420 14.313623 19.992748 2.450795 1.716383 -22.485703 8.242621 4.187882 -41.696407 4.968310 9.548526 62.405109 -0.656670 -4.202879 -17.151392 -3.985693 -0.779308 
0.297393 41.322033 0.337410 6.174820 3.670050 -6.819580 -12.791200 -2.621570 -4.019750 27.474199 1.822580 -2.474030 4.628630 -0.946330 4.581920 7.603610 3.715700 2.626640 2.000000 -2.000000 0.000000 -75.747902 -16.697599 -158.322998 84.404800 -0.228179 0.136112 0.081503 -0.098994 -170.710999 -2.000000 2.000000 0.000000 74.371597 -7.779560 -164.998993 -29.707399 0.333596 0.067756 -0.074673 0.066870 -157.770996 -1.424665 -11.523048 14.387872 19.306498 2.483953 1.645270 -22.490805 8.282423 4.214025 -42.528217 5.049013 9.986873 61.767681 -0.697348 -4.177167 -17.764679 -4.208769 -0.876022 
0.309267 41.195900 0.893499 6.216010 3.951320 -6.581380 -12.696900 -2.797320 -4.269350 27.640400 1.841320 -2.622590 4.412900 -0.872021 4.783250 7.496090 3.735850 2.718520 2.000000 -2.000000 0.000000 -74.264999 -19.040600 -157.985992 88.897003 -0.217481 0.136736 0.081854 -0.099517 -170.934998 -2.000000 2.000000 0.000000 72.594803 -9.742980 -164.768997 -28.623400 0.334856 0.065498 -0.064114 0.054977 -156.960999 -0.409605 -11.988662 14.337779 18.480513 2.522308 1.567633 -22.473377 8.382144 4.263306 -43.398052 5.103920 10.369283 61.149658 -0.750826 -4.156765 -18.249037 -4.383018 -0.941218 
0.312993 41.057308 1.478796 6.257210 4.213120 -6.276570 -12.581500 -2.954850 -4.553900 27.816299 1.850290 -2.791490 4.168490 -0.788577 4.973980 7.378820 3.765790 2.810250 2.000000 -2.000000 0.000000 -72.753304 -21.345301 -157.981003 92.910698 -0.207411 0.156103 0.082023 -0.099766 -171.042999 -2.000000 2.000000 0.000000 70.857300 -11.715800 -164.705002 -27.861601 0.335716 0.063896 -0.063533 0.053356 -156.345993 0.518597 -12.411070 14.170547 17.935953 2.590216 1.508081 -22.471836 8.483952 4.270835 -44.205452 5.092428 10.636387 60.619938 -0.776433 -4.126464 -18.653994 -4.458330 -0.981409 
0.306844 40.904537 2.097489 6.298240 4.436060 -5.946390 -12.465100 -3.106240 -4.849910 28.011801 1.868840 -2.958430 3.925170 -0.726048 5.143350 7.281070 3.785860 2.892830 2.000000 -2.000000 0.000000 -71.251801 -23.513901 -158.255997 96.377502 -0.198578 0.155384 0.081977 -0.099698 -171.013000 -2.000000 2.000000 0.000000 69.178703 -13.659100 -164.748993 -27.471001 0.336149 0.063071 -0.063262 0.052581 -156.052994 1.482777 -12.793119 13.868349 17.417227 2.678384 1.460121 -22.485538 8.590929 4.304891 -44.860252 5.023128 10.800571 60.158768 -0.821000 -4.112664 -19.120695 -4.530553 -1.011234 
0.289063 40.739548 2.748286 6.348930 4.629760 -5.607800 -12.358700 -3.228250 -5.122630 28.207300 1.877680 -3.116780 3.691650 -0.673274 5.311940 7.193050 3.796120 2.975460 2.000000 -2.000000 0.000000 -69.799301 -25.428900 -158.710999 99.277901 -0.191233 0.154373 0.081869 -0.099539 -170.945007 -2.000000 2.000000 0.000000 67.549103 -15.612200 -164.766006 -27.510099 0.336106 0.063154 -0.063325 0.052762 -156.121002 2.402088 -13.108668 13.493779 17.025084 2.763788 1.389613 -22.516064 8.702427 4.287509 -45.495407 4.960526 10.861143 59.912731 -0.846938 -4.088920 -19.637129 -4.781659 -1.128471 
0.258920 40.564774 3.429729 6.399250 4.774890 -5.275070 -12.300500 -3.340460 -5.396460 28.344101 1.896420 -3.265900 3.457180 -0.628767 5.499200 7.095120 3.786930 3.056360 2.000000 -2.000000 0.000000 -68.454002 -26.953501 -159.225006 101.612000 -0.185365 0.153291 0.081869 -0.099539 -170.945007 -2.000000 2.000000 0.000000 65.909698 -17.624399 -164.535995 -28.037399 0.335520 0.064267 -0.063661 0.053717 -156.481995 3.344514 -13.385174 12.995130 16.752295 2.900190 1.333146 -22.624949 8.777388 4.255171 -46.032722 4.865944 10.906640 59.873665 -0.852705 -4.093591 -20.270792 -5.254996 -1.354554 
0.216666 40.383694 4.142707 6.439470 4.881270 -4.927770 -12.290100 -3.436720 -5.682580 28.402901 1.925180 -3.416210 3.252020 -0.603820 5.686320 6.977680 3.787580 3.146280 2.000000 -2.000000 0.000000 -67.293800 -28.019100 -159.710999 103.320999 -0.181099 0.152347 0.081961 -0.099675 -171.003998 -2.000000 2.000000 0.000000 64.231300 -19.647301 -163.925995 -28.994499 0.334430 0.066274 -0.064237 0.055311 -157.087997 4.328819 -13.574265 12.337007 16.580757 3.069911 1.278833 -22.799763 8.773497 4.169033 -46.475349 4.756647 10.885859 60.148209 -0.825717 -4.096247 -21.002333 -5.955293 -1.698113 
0.162097 40.198383 4.888857 6.469340 4.929500 -4.548700 -12.317500 -3.507540 -5.983280 28.412901 1.973500 -3.565460 3.076170 -0.578931 5.874680 6.879760 3.778350 3.237000 2.000000 -2.000000 0.000000 -66.396500 -28.644899 -160.085999 104.335999 -0.178577 0.151726 0.082130 -0.099924 -171.110992 -2.000000 2.000000 0.000000 62.562302 -21.553900 -162.914993 -30.273800 0.332920 0.068927 -0.074859 0.067355 -157.957001 5.408633 -13.691054 11.520982 16.480379 3.269151 1.217636 -23.008945 8.616475 3.955889 -46.785679 4.613203 10.801125 60.707649 -0.792090 -4.131441 -21.750355 -6.774239 -2.106201 
0.093609 40.012787 5.670405 6.488850 4.919610 -4.137970 -12.345100 -3.539460 -6.262840 28.403500 2.050940 -3.701620 2.931630 -0.566802 6.024600 6.801360 3.759260 3.299260 2.000000 -2.000000 0.000000 -65.850197 -28.879700 -160.281006 104.628998 -0.177852 0.151539 0.072781 -0.100534 -171.375000 -2.000000 2.000000 0.000000 60.990700 -23.207300 -161.610001 -31.660500 0.331218 0.071764 -0.076058 0.060615 -159.119003 6.337036 -13.700600 10.751939 16.724396 3.577433 1.176997 -23.206894 8.358830 3.630134 -46.972435 4.437636 10.639051 61.610279 -0.722635 -4.169470 -22.400387 -7.646268 -2.586788 
0.008985 39.830292 6.488644 6.517400 4.832000 -3.705950 -12.373600 -3.516160 -6.505130 28.374599 2.128490 -3.809230 2.819860 -0.569667 6.107280 6.752330 3.740010 3.334190 2.000000 -2.000000 0.000000 -65.703400 -28.733000 -160.173996 104.190002 -0.178940 0.151819 0.073512 -0.101591 -171.834000 -2.000000 2.000000 0.000000 59.682400 -24.518999 -160.227005 -32.959301 0.329561 0.074384 -0.077459 0.063941 -160.408005 7.257113 -13.551669 10.051236 17.114168 3.891583 1.147622 -23.310627 8.026981 3.247812 -46.962242 4.220758 10.346039 62.748184 -0.641432 -4.217263 -22.971783 -8.491575 -3.047054 
-0.091320 39.654751 7.345560 6.574530 4.656810 -3.281640 -12.423800 -3.449860 -6.687410 28.345699 2.215720 -3.876530 2.722330 -0.569472 6.103250 6.713030 3.710940 3.340030 2.000000 -2.000000 0.000000 -66.053802 -28.175400 -159.759995 102.999001 -0.181901 0.152535 -179.925995 -179.906998 7.560740 -2.000000 2.000000 0.000000 58.813202 -25.420000 -159.076004 -33.974998 0.328225 0.076405 -0.078707 0.066739 -161.501999 8.108028 -13.145355 9.451975 17.316135 4.015673 1.144155 -22.862207 7.688724 2.981684 -46.765408 3.996750 9.831457 64.209076 -0.544246 -4.267159 -23.556686 -9.295732 -3.482609 
-0.202642 39.494919 8.244108 6.709170 4.383950 -2.892280 -12.496700 -3.314760 -6.795800 28.307100 2.303010 -3.885720 2.599510 -0.545884 6.021430 6.673790 3.691630 3.297540 2.000000 -2.000000 0.000000 -66.959999 -27.197201 -159.018997 101.055000 -0.186760 0.153571 -179.923996 -179.904999 6.916210 -2.000000 2.000000 0.000000 58.500599 -25.851000 -158.462006 -34.599998 0.327385 0.077638 -0.079408 0.068252 -162.097000 8.886922 -12.632783 8.806746 17.760336 4.007622 1.180272 -22.288742 7.694820 2.958141 -46.340309 3.734814 9.030725 65.612137 -0.426713 -4.321091 -23.894875 -10.001459 -3.916196 
-0.319448 39.356438 9.186996 6.911810 4.042770 -2.547290 -12.592800 -3.117060 -6.818800 28.258600 2.380700 -3.857690 2.461200 -0.508660 5.861710 6.624810 3.682120 3.215830 2.000000 -2.000000 0.000000 -68.500298 -25.798700 -158.095001 98.330597 -0.193626 0.154744 -179.923004 -179.904007 6.281450 -2.000000 2.000000 0.000000 58.822899 -25.772699 -158.559998 -34.805099 0.327106 0.078040 -0.079525 0.068499 -162.195007 9.169884 -12.024437 8.251114 19.075113 3.994252 1.242423 -21.753624 8.122959 3.109022 -45.669579 3.426164 7.967458 66.927170 -0.306007 -4.373135 -24.189526 -10.399826 -4.210171 
-0.439122 39.238934 10.176707 7.192420 3.652750 -2.244130 -12.742000 -2.843890 -6.750180 28.200600 2.477810 -3.759250 2.305930 -0.475068 5.652280 6.575880 3.682360 3.115030 2.000000 -2.000000 0.000000 -70.665298 -23.980301 -157.199997 94.805298 -0.202578 0.155776 -179.912994 -179.893005 5.666240 -2.000000 2.000000 0.000000 59.740898 -25.155800 -159.309998 -34.551102 0.327451 0.077542 -0.079304 0.068029 -162.009995 9.196708 -11.424608 7.727409 21.146481 3.974894 1.397668 -21.347750 8.746646 3.343580 -44.575691 3.073859 6.762376 67.849548 -0.221510 -4.406551 -24.644251 -10.141196 -4.287455 
-0.561059 39.147434 11.217274 7.560860 3.223740 -2.003550 -12.924200 -2.508360 -6.597370 28.132799 2.594370 -3.610050 2.191760 -0.434694 5.405790 6.536790 3.692310 2.995770 2.000000 -2.000000 0.000000 -73.387100 -21.762199 -156.613007 90.420502 -0.213774 0.156289 -179.921005 -179.901001 5.070500 -2.000000 2.000000 0.000000 61.205502 -23.971300 -160.587006 -33.828499 0.328420 0.076115 -0.078969 0.067310 -161.725998 8.326391 -10.604691 7.606352 24.064253 3.886608 1.584211 -20.317499 9.244579 3.441940 -43.097237 2.757298 5.559492 68.075439 -0.195381 -4.416602 -25.498762 -9.128903 -4.080287 
-0.685952 39.094795 12.307820 7.987880 2.765910 -1.848340 -13.159400 -2.116710 -6.350300 28.035801 2.720830 -3.412410 2.128980 -0.358973 5.114060 6.517310 3.711920 2.848870 2.000000 -2.000000 0.000000 -76.509804 -19.213301 -156.578995 85.166496 -0.226369 0.136277 -179.919998 -179.889999 4.513880 -2.000000 2.000000 0.000000 63.148399 -22.209700 -162.272003 -32.666401 0.329940 0.073796 -0.078604 0.066515 -161.414001 7.045828 -9.702868 7.928196 27.933809 3.760575 1.848904 -19.030552 9.707072 3.449023 -41.334278 2.561167 4.404219 67.467567 -0.243335 -4.402069 -26.802671 -7.698827 -3.727750 
-0.817483 39.082436 13.433112 8.453780 2.241030 -1.815320 -13.408500 -1.684620 -5.995590 27.889999 2.857330 -3.148030 2.117130 -0.237378 4.787410 6.517500 3.750940 2.684560 2.000000 -2.000000 0.000000 -79.838600 -16.490299 -157.326996 79.033699 -0.240857 0.134268 -179.919998 -179.899002 4.054880 -2.000000 2.000000 0.000000 65.471901 -19.871201 -164.248993 -31.172199 0.331825 0.070770 -0.078333 0.065917 -161.179993 5.235590 -8.649075 8.743760 33.007092 3.569464 2.184196 -17.212523 10.284861 3.386945 -39.483036 2.593034 3.209860 66.320030 -0.337153 -4.365664 -28.447227 -6.563774 -3.442132 
-0.959164 39.094795 14.564694 8.880660 1.649910 -1.929560 -13.671200 -1.208670 -5.524870 27.646500 3.004240 -2.829130 2.146510 -0.060106 4.425950 6.547110 3.799580 2.512850 2.000000 -2.000000 0.000000 -83.178299 -13.759700 -159.031998 72.070801 -0.256937 0.130127 -179.919006 -179.899002 3.840040 -2.000000 2.000000 0.000000 68.058800 -16.995300 -166.322006 -29.551100 0.333780 0.067432 -0.078210 0.065642 -161.072006 2.390182 -7.167133 9.818130 39.185593 3.233484 2.566488 -13.768418 11.159324 3.093491 -37.682999 2.889283 1.925856 65.035408 -0.427065 -4.320662 -30.081495 -6.014473 -3.423331 
-1.103416 39.104698 15.671563 9.161520 0.983389 -2.165490 -13.907100 -0.720472 -4.939050 27.226601 3.103890 -2.468710 2.198750 0.171461 4.009710 6.606230 3.877330 2.315170 2.000000 -2.000000 0.000000 -86.304199 -11.187600 -161.714005 64.434097 -0.273850 0.123383 -179.919006 -179.899002 3.947460 -2.000000 2.000000 0.000000 70.821404 -13.689900 -168.276993 -28.027599 0.335531 0.064246 -0.078076 0.065343 -160.955002 -0.693766 -5.570940 10.517751 45.759750 2.732335 2.997013 -8.783543 12.276568 2.581218 -35.907097 3.432226 0.688124 63.810810 -0.490934 -4.292299 -31.410435 -5.841314 -3.549018 
